<svg xmlns="http://www.w3.org/2000/svg" width="19.654" height="20.973" viewBox="0 0 19.654 20.973">
  <g id="bell" transform="translate(-53.013 -9.366)">
    <path id="Path_18" data-name="Path 18" d="M184.9,465.044a3.746,3.746,0,0,0,6.857,0Z" transform="translate(-125.492 -436.942)" fill="#fff" stroke="#00ffa9" stroke-width="1"/>
    <path id="Path_20" data-name="Path 20" d="M71.921,96.117H53.76a.74.74,0,0,1-.73-.568.706.706,0,0,1,.389-.8,3.854,3.854,0,0,0,1.173-1.594,18.421,18.421,0,0,0,1.223-7.29,7.026,7.026,0,0,1,14.051-.028q0,.014,0,.028a18.421,18.421,0,0,0,1.223,7.29,3.853,3.853,0,0,0,1.173,1.594.706.706,0,0,1,.389.8A.74.74,0,0,1,71.921,96.117Zm.349-1.366h0Z" transform="translate(0 -69.47)" fill="#fff" stroke="#00ffa9" stroke-width="1"/>
  </g>
</svg>
