<svg version="1.1" id="Capa_1" xmlns="http://www.w3.org/2000/svg" xmlns:xlink="http://www.w3.org/1999/xlink" x="0px" y="0px"
	 viewBox="0 0 512.067 512.067" style="enable-background:new 0 0 512.067 512.067;" xml:space="preserve">
<path fill="#141011" d="M416.065,0.013H40.599C24.173-0.152,9.326,9.774,3.201,25.016
	c-6.454,15.118-2.963,32.647,8.789,44.139l430.933,430.933c7.478,7.622,17.696,11.932,28.373,11.968
	c5.413-0.014,10.77-1.094,15.765-3.179c15.238-6.13,25.162-20.973,25.003-37.397V96.013C512.065,42.994,469.085,0.013,416.065,0.013
	z"/>
<g>
	<path style="fill:#FAFAFA;" d="M298.732,245.347c-5.891,0.011-10.675-4.757-10.686-10.648c-0.005-2.84,1.123-5.565,3.134-7.571
		l64-64c4.093-4.237,10.845-4.355,15.083-0.262c4.237,4.093,4.354,10.845,0.262,15.083c-0.086,0.089-0.173,0.176-0.262,0.262l-64,64
		C304.267,244.212,301.559,245.34,298.732,245.347z"/>
	<path style="fill:#FAFAFA;" d="M266.732,203.981c-8.823-0.007-17.275-3.55-23.467-9.835l-26.688-26.667
		c-4.164-4.165-4.164-10.917,0-15.083l32-32l0,0l32-32c4.165-4.164,10.917-4.164,15.083,0l26.539,26.816
		c12.959,13.011,12.959,34.051,0,47.061l-0.469,0.448c-5.867,5.703-13.647,9.019-21.824,9.301
		c-0.342,8.332-3.807,16.229-9.707,22.123l-0.469,0.448C283.582,200.605,275.329,203.973,266.732,203.981z M239.148,160.013
		l19.2,19.2c4.723,4.505,12.152,4.505,16.875,0l0.299-0.299c4.488-4.729,4.374-12.178-0.256-16.768l-19.2-19.2L239.148,160.013z
		 M290.348,147.213c4.723,4.505,12.152,4.505,16.875,0l0.299-0.299c4.488-4.729,4.374-12.178-0.256-16.768l-19.2-19.2
		l-16.917,17.067L290.348,147.213z"/>
	<path style="fill:#FAFAFA;" d="M373.399,307.491c-22.539,0.031-40.836-18.216-40.866-40.755
		c-0.015-10.857,4.297-21.272,11.981-28.941l21.333-21.333c15.947-15.947,41.802-15.947,57.749,0
		c15.947,15.947,15.947,41.802,0,57.749l-21.333,21.333C394.613,303.207,384.226,307.506,373.399,307.491z M394.732,225.848
		c-5.168-0.007-10.126,2.042-13.781,5.696l-21.333,21.333c-7.609,7.621-7.609,19.963,0,27.584c7.63,7.585,19.954,7.585,27.584,0
		l21.333-21.333c7.611-7.618,7.606-19.964-0.013-27.575c-3.653-3.65-8.605-5.701-13.769-5.705H394.732z"/>
</g>
<g>
</g>
<g>
</g>
<g>
</g>
<g>
</g>
<g>
</g>
<g>
</g>
<g>
</g>
<g>
</g>
<g>
</g>
<g>
</g>
<g>
</g>
<g>
</g>
<g>
</g>
<g>
</g>
<g>
</g>
</svg>
