<svg xmlns="http://www.w3.org/2000/svg" width="11.859" height="10.377" viewBox="0 0 11.859 10.377">
  <path id="camera" d="M11.859,34.594v6.671a1.112,1.112,0,0,1-1.112,1.112H1.112A1.112,1.112,0,0,1,0,41.265V34.594a1.112,1.112,0,0,1,1.112-1.112H3.15l.285-.762A1.11,1.11,0,0,1,4.475,32H7.382a1.11,1.11,0,0,1,1.04.72l.287.762h2.038A1.112,1.112,0,0,1,11.859,34.594Zm-3.15,3.335a2.779,2.779,0,1,0-2.779,2.779A2.782,2.782,0,0,0,8.709,37.929Zm-.741,0a2.038,2.038,0,1,1-2.038-2.038A2.041,2.041,0,0,1,7.968,37.929Z" transform="translate(0 -32)"/>
</svg>
