<svg xmlns="http://www.w3.org/2000/svg" width="16.002" height="14" viewBox="0 0 16.002 14">
  <path id="comment" d="M7.934,32c4.419,0,8,2.909,8,6.5a5.745,5.745,0,0,1-1.653,3.947,7.93,7.93,0,0,0,1.45,2.287A.75.75,0,0,1,15.184,46a7.582,7.582,0,0,1-4.347-1.447,9.652,9.652,0,0,1-2.9.447c-4.419,0-8-2.909-8-6.5S3.515,32,7.934,32Zm0,11.5a8.12,8.12,0,0,0,2.45-.378l.709-.225.609.431a6.72,6.72,0,0,0,1.8.906,7.839,7.839,0,0,1-.622-1.256l-.331-.878.644-.681A4.3,4.3,0,0,0,14.434,38.5c0-2.756-2.916-5-6.5-5s-6.5,2.244-6.5,5S4.349,43.5,7.934,43.5Z" transform="translate(0.066 -32)" fill="#00ffa9"/>
</svg>
