<svg xmlns="http://www.w3.org/2000/svg" width="34" height="29.746" viewBox="0 0 34 29.746">
  <path id="comment-dots" d="M24.368,43.686a2.125,2.125,0,1,1-2.125,2.125A2.122,2.122,0,0,1,24.368,43.686Zm-7.437,0a2.125,2.125,0,1,1-2.125,2.125A2.122,2.122,0,0,1,16.931,43.686Zm-7.437,0A2.125,2.125,0,1,1,7.37,45.811,2.122,2.122,0,0,1,9.495,43.686ZM16.931,32c9.389,0,17,6.182,17,13.811A12.206,12.206,0,0,1,30.417,54.2a16.849,16.849,0,0,0,3.081,4.86,1.594,1.594,0,0,1-1.162,2.689A16.111,16.111,0,0,1,23.1,58.672a20.507,20.507,0,0,1-6.168.949c-9.389,0-17-6.182-17-13.811S7.543,32,16.931,32Zm0,24.434a17.254,17.254,0,0,0,5.206-.8l1.507-.478,1.295.916a14.278,14.278,0,0,0,3.818,1.926,16.654,16.654,0,0,1-1.321-2.669l-.7-1.866L28.1,52.012a9.132,9.132,0,0,0,2.643-6.2c0-5.856-6.195-10.624-13.811-10.624S3.121,39.954,3.121,45.811,9.316,56.434,16.931,56.434Z" transform="translate(0.066 -32)" fill="#00ffa9"/>
</svg>
