<svg xmlns="http://www.w3.org/2000/svg" width="20.191" height="16.16" viewBox="0 0 20.191 16.16">
  <g id="email" transform="translate(0 -59.733)">
    <g id="Group_4" data-name="Group 4" transform="translate(0 59.733)">
      <g id="Group_3" data-name="Group 3" transform="translate(0 0)">
        <path id="Path_1" data-name="Path 1" d="M19.181,59.733H1.01A1.032,1.032,0,0,0,0,60.787V74.839a1.032,1.032,0,0,0,1.01,1.054H19.181a1.032,1.032,0,0,0,1.01-1.054V60.787A1.032,1.032,0,0,0,19.181,59.733Zm.337,15.106a.344.344,0,0,1-.337.351H1.01a.344.344,0,0,1-.337-.351V60.787a.344.344,0,0,1,.337-.351H19.181a.344.344,0,0,1,.337.351V74.839Z" transform="translate(0 -59.733)" fill="#141011"/>
        <path id="Path_2" data-name="Path 2" d="M50.811,93.867a.288.288,0,0,0-.238.093l-7.532,7.787a.563.563,0,0,1-.84,0l-7.532-7.787a.28.28,0,0,0-.322-.07.39.39,0,0,0-.21.308.456.456,0,0,0,.112.378l7.532,7.787a1.124,1.124,0,0,0,1.68,0l7.532-7.787a.437.437,0,0,0,.115-.273.466.466,0,0,0-.075-.293A.312.312,0,0,0,50.811,93.867Z" transform="translate(-32.526 -92.258)" fill="#141011"/>
        <path id="Path_3" data-name="Path 3" d="M40.127,272.935a.4.4,0,0,0-.387.125l-5.625,6.027a.4.4,0,1,0,.587.548l5.625-6.027a.4.4,0,0,0-.2-.673Z" transform="translate(-32.399 -265.209)" fill="#141011"/>
        <path id="Path_4" data-name="Path 4" d="M341.9,273.059a.4.4,0,1,0-.587.548l5.625,6.027a.4.4,0,0,0,.587-.548Z" transform="translate(-329.052 -265.209)" fill="#141011"/>
      </g>
    </g>
  </g>
</svg>
