<svg xmlns="http://www.w3.org/2000/svg" width="22" height="22" viewBox="0 0 22 22">
  <g id="google2" transform="translate(0)">
    <path id="Path_7" data-name="Path 7" d="M52.913,301.977a10.878,10.878,0,0,1-16.513-2.8l.714-3.292,3.166-.588a5.842,5.842,0,0,0,5.556,4.112,5.718,5.718,0,0,0,3.4-1.109l3.042.464Z" transform="translate(-34.836 -282.611)" fill="#59c36a"/>
    <path id="Path_8" data-name="Path 8" d="M263.077,368.874l-.632-3.21L259.4,365.2a5.718,5.718,0,0,1-3.4,1.109v5.2A10.983,10.983,0,0,0,263.077,368.874Z" transform="translate(-245 -349.508)" fill="#00a66c"/>
    <g id="Connected_Home_1_" transform="translate(0 5.431)">
      <g id="Group_11" data-name="Group 11">
        <g id="Group_10" data-name="Group 10">
          <g id="Group_9" data-name="Group 9">
            <path id="Path_9" data-name="Path 9" d="M5.2,131.969a6.007,6.007,0,0,0,.245,1.689l-3.88,3.88a10.7,10.7,0,0,1,0-11.137l3.114.536.766,3.344A6.007,6.007,0,0,0,5.2,131.969Z" transform="translate(0 -126.4)" fill="#ffda2d"/>
          </g>
        </g>
      </g>
    </g>
    <path id="Path_10" data-name="Path 10" d="M252.645,198.578a10.983,10.983,0,0,1-3.923,8.366l-3.674-3.674a5.7,5.7,0,0,0,1.792-2.114h-5.195a.638.638,0,0,1-.645-.645v-3.867a.638.638,0,0,1,.645-.645H251.82a.637.637,0,0,1,.632.528A10.93,10.93,0,0,1,252.645,198.578Z" transform="translate(-230.645 -187.578)" fill="#4086f4"/>
    <path id="Path_11" data-name="Path 11" d="M261.195,201.156a5.7,5.7,0,0,1-1.792,2.114l3.674,3.674a10.895,10.895,0,0,0,3.73-10.416.637.637,0,0,0-.632-.528H256v5.156Z" transform="translate(-245 -187.578)" fill="#4175df"/>
    <path id="Path_12" data-name="Path 12" d="M53.093,3.072a.65.65,0,0,1-.18.477L50.154,6.295a.631.631,0,0,1-.838.064A5.766,5.766,0,0,0,45.836,5.2,5.842,5.842,0,0,0,40.28,9.311L36.4,5.431A10.871,10.871,0,0,1,52.861,2.6a.678.678,0,0,1,.232.477Z" transform="translate(-34.836)" fill="#ff641a"/>
    <path id="Path_13" data-name="Path 13" d="M259.48,6.359a.631.631,0,0,0,.838-.064l2.759-2.746a.65.65,0,0,0,.18-.477.678.678,0,0,0-.232-.477A10.967,10.967,0,0,0,256,0V5.2A5.766,5.766,0,0,1,259.48,6.359Z" transform="translate(-245 0)" fill="#f03800"/>
  </g>
</svg>
