<svg xmlns="http://www.w3.org/2000/svg" width="15.669" height="21.732" viewBox="0 0 15.669 21.732">
  <g id="padlock" transform="translate(-65.8)">
    <g id="Group_6" data-name="Group 6" transform="translate(65.8)">
      <g id="Group_5" data-name="Group 5" transform="translate(0)">
        <path id="Path_5" data-name="Path 5" d="M79.391,9.242V5.8a5.771,5.771,0,0,0-1.723-4.147A5.587,5.587,0,0,0,73.7,0h-.074a5.787,5.787,0,0,0-5.754,5.8V9.242A2.35,2.35,0,0,0,65.8,11.606v7.731a2.381,2.381,0,0,0,2.364,2.4H79.106a2.381,2.381,0,0,0,2.364-2.4V11.606A2.361,2.361,0,0,0,79.391,9.242ZM68.79,5.8h0A4.876,4.876,0,0,1,73.632.908h0A4.772,4.772,0,0,1,77.019,2.3a4.879,4.879,0,0,1,1.447,3.5V9.247H77.452V5.8A3.882,3.882,0,0,0,76.3,3.013a3.735,3.735,0,0,0-2.64-1.1h-.028A3.858,3.858,0,0,0,69.8,5.8V9.247H68.79Zm7.745,0V9.247H70.73V5.8a2.934,2.934,0,0,1,2.912-2.958h.028a2.826,2.826,0,0,1,1.995.829A2.97,2.97,0,0,1,76.535,5.8Zm4.054,13.55h0a1.461,1.461,0,0,1-1.461,1.461H68.182a1.461,1.461,0,0,1-1.461-1.461V11.629a1.461,1.461,0,0,1,1.461-1.461H79.129a1.461,1.461,0,0,1,1.461,1.461Z" transform="translate(-65.8)" fill="#141011"/>
      </g>
    </g>
    <g id="Group_8" data-name="Group 8" transform="translate(71.969 14.001)">
      <g id="Group_7" data-name="Group 7" transform="translate(0)">
        <path id="Path_6" data-name="Path 6" d="M202.957,305.1a1.661,1.661,0,1,0-2.055,2.055v1.29a.461.461,0,0,0,.921,0v-1.29A1.657,1.657,0,0,0,202.957,305.1Zm-1.594,1.2a.742.742,0,1,1,.742-.742A.741.741,0,0,1,201.363,306.3Z" transform="translate(-199.7 -303.9)" fill="#141011"/>
      </g>
    </g>
  </g>
</svg>
