<svg xmlns="http://www.w3.org/2000/svg" width="28.158" height="22.527" viewBox="0 0 28.158 22.527">
  <path id="user-plus" d="M27.454,9.151H24.639V6.336a.706.706,0,0,0-.7-.7H22.527a.706.706,0,0,0-.7.7V9.151H19.007a.706.706,0,0,0-.7.7v1.408a.706.706,0,0,0,.7.7h2.816v2.816a.706.706,0,0,0,.7.7h1.408a.706.706,0,0,0,.7-.7V11.967h2.816a.706.706,0,0,0,.7-.7V9.855A.706.706,0,0,0,27.454,9.151Zm-17.6,2.112A5.632,5.632,0,1,0,4.224,5.632,5.631,5.631,0,0,0,9.855,11.263ZM13.8,12.671h-.735a7.659,7.659,0,0,1-6.415,0H5.913A5.915,5.915,0,0,0,0,18.585v1.83a2.112,2.112,0,0,0,2.112,2.112H17.6a2.112,2.112,0,0,0,2.112-2.112v-1.83A5.915,5.915,0,0,0,13.8,12.671Z" fill="#fff" stroke="#00ffa9" stroke-width="1"/>
</svg>
